<svg width="2024" height="21643" viewBox="0 0 2024 21643" fill="none" xmlns="http://www.w3.org/2000/svg">
<path fill-rule="evenodd" clip-rule="evenodd" d="M1988.23 0H2023.59V9441.06C2024.04 9453.76 2025.26 9510.74 2014.59 9563.57C2003.57 9618.08 1977.1 9697.35 1913.95 9765.22C1825.83 9859.93 1691.81 9907.95 1515.63 9907.95C1401.2 9907.95 1302.38 9944.04 1221.98 10015.3C1157.07 10072.8 1103.61 10153.3 1063.09 10254.5C994.781 10425.2 986.741 10597.8 986.368 10605.9V11655C986.687 11663.1 994.887 11836.6 1063.41 12007.2C1103.99 12108.3 1157.39 12188.6 1222.3 12246C1302.64 12317 1401.31 12353 1515.57 12353C1691.71 12353 1825.62 12401 1913.47 12495.7C1948.24 12533.2 1993.87 12598.6 2013.63 12697.4C2024.76 12753 2022.68 12794.3 2022.31 12800.4V21642.8L2022.36 21642.9H1987.01V12798.6C1987.06 12798.2 1989.83 12757.8 1978.75 12703.1C1968.64 12653.3 1944.57 12581 1887.33 12519.5C1806.4 12432.5 1681.32 12388.4 1515.57 12388.4C1392.26 12388.4 1285.55 12349.3 1198.5 12272.1C1129.44 12211 1072.84 12126 1030.24 12019.6C1009.48 11967.7 981.043 11882.4 963.366 11769.9C952.77 11702.6 951.066 11657.9 951.013 11656V10605C951.066 10603.1 952.77 10558.4 963.366 10491.1C973.11 10429 992.651 10335.3 1030.24 10241.4C1072.84 10135 1129.44 10050 1198.5 9988.87C1285.55 9911.78 1392.2 9872.65 1515.57 9872.65C1681.54 9872.65 1806.82 9828.42 1888.02 9741.16C1977.74 9644.76 1987.33 9525.27 1988.32 9461.09H1988.23V0Z" fill="#52897D"/>
<path fill-rule="evenodd" clip-rule="evenodd" d="M1824.4 0H1859.75V9279.24H1859.72C1860.19 9287.21 1862.07 9332.94 1849.63 9394.22C1837.28 9455.34 1807.68 9544.14 1736.91 9620.16C1638.14 9726.25 1487.88 9780.08 1290.24 9780.08C1222.56 9780.08 1159.2 9791.31 1101.96 9813.4C1050 9833.47 1001.81 9862.96 958.627 9901.13C885.362 9965.92 824.982 10056.6 779.244 10170.7C701.932 10363.4 692.774 10559.2 692.454 10567.8V11748.7C692.827 11757.3 701.932 11953 779.244 12145.8C824.982 12259.8 885.362 12350.5 958.627 12415.3C1001.76 12453.5 1050 12483 1101.96 12503.1C1159.2 12525.2 1222.56 12536.4 1290.24 12536.4C1487.83 12536.4 1637.98 12590.2 1736.49 12696.3C1767.69 12730 1793.51 12768.9 1813.27 12812C1828.97 12846.4 1840.9 12883.5 1848.62 12922.3C1861.13 12984.9 1858.74 13031.2 1858.37 13037.8V21642.9H1823.01V13035.8C1823.12 13035.3 1826.21 12989.6 1813.75 12927.9C1802.35 12871.5 1775.14 12789.6 1710.29 12720C1618.76 12621.5 1477.45 12571.6 1290.24 12571.6C1151.96 12571.6 1032.43 12527.8 934.88 12441.4C857.408 12372.8 793.94 12277.5 746.126 12158.1C722.804 12099.8 690.857 12003.9 670.997 11877.5C659.575 11804.7 657.366 11755.6 657.12 11750.1L657.1 11749.6V10566.8C657.153 10564.7 659.07 10514.6 670.997 10438.9C681.965 10369.2 703.902 10263.9 746.126 10158.4C793.94 10039 857.408 9943.62 934.88 9875C1032.43 9788.59 1152.01 9744.78 1290.24 9744.78C1477.45 9744.78 1618.92 9694.85 1710.77 9596.41C1746.66 9557.92 1793.83 9490.63 1814.76 9388.47C1824.56 9340.77 1824.43 9305.57 1824.33 9278.19C1824.31 9271.71 1824.28 9265.67 1824.4 9260.01V0Z" fill="#52897D"/>
<path fill-rule="evenodd" clip-rule="evenodd" d="M1662.85 0H1698.2V9034.94H1698.17C1698.68 9043.75 1700.92 9096.54 1686.6 9167.49C1677.54 9212.21 1663.7 9255.01 1645.49 9294.62C1622.65 9344.29 1592.78 9389.11 1556.73 9427.87C1442.89 9550.2 1269.47 9612.22 1041.32 9612.22C962.461 9612.22 888.663 9625.32 821.947 9651.09C761.407 9674.51 705.233 9708.95 654.916 9753.46C569.671 9828.95 499.494 9934.57 446.355 10067.4C356.637 10291.5 346.36 10518.3 345.988 10527.5V11895.5C346.147 11899.9 348.703 11957 361.748 12039.7C374.208 12118.6 399.02 12237.5 446.674 12356.4C499.866 12489 569.99 12594.4 655.236 12669.8C705.499 12714.2 761.62 12748.6 822.107 12771.9C888.77 12797.7 962.514 12810.7 1041.26 12810.7C1269.37 12810.7 1442.63 12872.7 1556.15 12995.1C1592.09 13033.8 1621.85 13078.7 1644.59 13128.3C1662.69 13167.9 1676.43 13210.7 1685.37 13255.5C1699.85 13328 1697.03 13381.6 1696.55 13388.5V21642.8L1696.61 21642.9H1661.25V13386.7C1661.36 13386.2 1664.98 13333 1650.5 13261.2C1642.03 13219.3 1629.09 13179.2 1612.05 13142.2C1590.86 13096.2 1563.28 13054.7 1529.95 13018.9C1423.35 12904.3 1258.93 12846.1 1041.26 12846.1C881.794 12846.1 743.943 12795.6 631.435 12696C542.037 12616.7 468.718 12506.6 413.503 12368.7C386.561 12301.4 349.608 12190.5 326.66 12044.3C312.922 11956.9 310.686 11899 310.633 11896.5V10526.5L310.643 10526.3C310.838 10521.5 313.217 10464.2 326.66 10378.7C339.332 10298 364.73 10176.3 413.503 10054.3C468.718 9916.36 542.037 9806.27 631.435 9727.05C743.889 9627.4 881.794 9576.88 1041.26 9576.88C1258.98 9576.88 1423.56 9518.74 1530.48 9404.07C1563.87 9368.25 1591.61 9326.77 1612.9 9280.73C1630.05 9243.73 1643.04 9203.69 1651.67 9161.74C1662.57 9108.48 1662.98 9064.77 1662.88 9034.94H1662.85V9028.27C1662.83 9023.84 1662.81 9019.77 1662.85 9016.08V0Z" fill="#52897D"/>
<path fill-rule="evenodd" clip-rule="evenodd" d="M1504.12 0H1539.48V8834.24L1539.44 8834.24C1539.96 8843.31 1542.63 8902.1 1526.59 8981.37C1516.53 9030.98 1501.2 9078.41 1481.02 9122.33C1455.67 9177.43 1422.55 9227.1 1382.62 9270.01C1256.37 9405.65 1063.95 9474.49 810.765 9474.49C722.911 9474.49 640.647 9489.07 566.263 9517.77C498.748 9543.85 436.078 9582.24 380.011 9631.8C284.969 9715.86 206.751 9833.4 147.489 9981.24C118.204 10054.3 78.0043 10174.7 52.9258 10333.9C38.3981 10426 35.5711 10489.6 35.3552 10494.4L35.3548 10494.4V12016.3C35.5678 12021.1 38.3898 12084.7 52.9258 12176.8C66.7695 12264.7 94.457 12397.1 147.489 12529.5C206.751 12677.2 284.969 12794.9 380.011 12878.9C436.078 12928.5 498.748 12966.8 566.263 12992.9C640.647 13021.7 722.911 13036.2 810.765 13036.2C1063.95 13036.2 1256.11 13105 1382.03 13240.6C1421.86 13283.5 1454.87 13333.3 1480.06 13388.4C1500.13 13432.3 1515.36 13479.7 1525.26 13529.3C1541.4 13610.1 1538.2 13669.5 1537.67 13677V21642.9H1502.37V13675C1502.47 13674.5 1506.52 13615.2 1490.39 13535C1480.96 13488.2 1466.53 13443.5 1447.53 13402.2C1423.88 13350.8 1393.06 13304.4 1355.84 13264.4C1236.89 13136.5 1053.51 13071.6 810.765 13071.6C633.884 13071.6 480.964 13015.6 356.211 12905.1C257.015 12817.2 175.603 12695 114.318 12541.9C84.3937 12467.1 43.3416 12343.8 17.8372 12181.5C2.69026 12085.1 0.150597 12021.1 0.00336322 12017.4L0 12017.3V10493.5L0.00200983 10493.4C0.134306 10490 2.64129 10425.9 17.8372 10329.3C31.9471 10239.6 60.1139 10104.4 114.318 9968.89C175.603 9815.73 256.962 9693.55 356.211 9605.66C480.964 9495.14 633.884 9439.14 810.765 9439.14C1053.51 9439.14 1237.1 9374.24 1356.42 9246.27C1393.75 9206.23 1424.68 9159.86 1448.48 9108.44C1467.6 9067.13 1482.13 9022.41 1491.72 8975.62C1504.67 8912.32 1504.51 8863.15 1504.37 8818.66C1504.33 8806.88 1504.29 8795.42 1504.5 8784.12C1504.5 8784.08 1504.5 8784.04 1504.5 8784L1504.12 0Z" fill="#52897D"/>
</svg>
