<svg version="1.2" xmlns="http://www.w3.org/2000/svg" viewBox="0 0 506 3708" width="506" height="3708">
	<title>lineas-svg</title>
	<style>
		.s0 { fill: #52897d } 
	</style>
	<path id="Layer" fill-rule="evenodd" class="s0" d="m497.1 0h8.8v2360.3c0.1 3.1 0.4 17.4-2.3 30.6-2.7 13.6-9.3 33.4-25.1 50.4-22 23.7-55.5 35.7-99.6 35.7-28.6 0-53.3 9-73.4 26.8-16.2 14.4-29.6 34.5-39.7 59.8-17.1 42.7-19.1 85.8-19.2 87.9v262.2c0.1 2.1 2.1 45.4 19.3 88.1 10.1 25.3 23.4 45.3 39.7 59.7 20.1 17.7 44.7 26.7 73.3 26.7 44 0 77.5 12 99.5 35.7 8.7 9.4 20.1 25.7 25 50.4 2.8 13.9 2.3 24.3 2.2 25.8v2210.6h-8.8v-2211.1c0 0 0.7-10.2-2.1-23.8-2.5-12.5-8.6-30.6-22.9-45.9-20.2-21.8-51.5-32.8-92.9-32.8-30.8 0-57.5-9.8-79.3-29.1-17.2-15.3-31.4-36.5-42-63.1-5.2-13-12.3-34.3-16.8-62.4-2.6-16.9-3-28-3-28.5v-262.8c0-0.4 0.4-11.6 3-28.4 2.5-15.6 7.4-39 16.8-62.5 10.6-26.6 24.8-47.8 42-63.1 21.8-19.3 48.4-29 79.3-29 41.5 0 72.8-11.1 93.1-32.9 22.4-24.1 24.8-54 25.1-70z"/>
	<path id="Layer" fill-rule="evenodd" class="s0" d="m456.1 0h8.8v2319.8c0.1 2 0.6 13.4-2.5 28.8-3.1 15.2-10.5 37.4-28.2 56.4-24.7 26.6-62.2 40-111.6 40-17 0-32.8 2.8-47.1 8.3-13 5.1-25 12.4-35.8 22-18.4 16.2-33.5 38.8-44.9 67.4-19.3 48.1-21.6 97.1-21.7 99.2v295.3c0.1 2.1 2.4 51 21.7 99.2 11.4 28.5 26.5 51.2 44.9 67.4 10.7 9.6 22.8 16.9 35.8 22 14.3 5.5 30.1 8.3 47.1 8.3 49.4 0 86.9 13.4 111.5 40 7.8 8.4 14.3 18.1 19.2 28.9 3.9 8.6 6.9 17.9 8.9 27.6 3.1 15.6 2.5 27.2 2.4 28.8v2151.3h-8.8v-2151.8c0-0.1 0.8-11.5-2.4-26.9-2.8-14.1-9.6-34.6-25.8-52-22.9-24.6-58.2-37.1-105-37.1-34.6 0-64.5-11-88.9-32.6-19.3-17.1-35.2-40.9-47.2-70.8-5.8-14.6-13.8-38.5-18.8-70.1-2.8-18.2-3.4-30.5-3.4-31.9v-0.1-295.7c0-0.5 0.5-13.1 3.4-32 2.8-17.4 8.3-43.7 18.8-70.1 12-29.9 27.9-53.7 47.2-70.9 24.4-21.6 54.3-32.5 88.9-32.5 46.8 0 82.1-12.5 105.1-37.1 9-9.6 20.8-26.4 26-52 2.4-11.9 2.4-20.7 2.4-27.6q0-2.4 0-4.5z"/>
	<path id="Layer" fill-rule="evenodd" class="s0" d="m415.7 0h8.9v2258.7h-0.1c0.2 2.2 0.7 15.4-2.9 33.2-2.2 11.2-5.7 21.9-10.2 31.8-5.7 12.4-13.2 23.6-22.2 33.3-28.5 30.6-71.8 46.1-128.9 46.1-19.7 0-38.1 3.2-54.8 9.7-15.1 5.8-29.2 14.4-41.8 25.6-21.3 18.8-38.8 45.2-52.1 78.5-22.4 56-25 112.7-25.1 115v342c0 1.1 0.7 15.4 3.9 36 3.2 19.8 9.4 49.5 21.3 79.2 13.3 33.2 30.8 59.5 52.1 78.3 12.6 11.2 26.6 19.8 41.7 25.6 16.7 6.4 35.1 9.7 54.8 9.7 57 0 100.4 15.5 128.7 46.1 9 9.6 16.5 20.9 22.1 33.3 4.6 9.9 8 20.6 10.2 31.8 3.7 18.1 3 31.5 2.8 33.2v2063.6h0.1-8.9v-2064c0-0.1 0.9-13.4-2.7-31.4-2.1-10.5-5.3-20.5-9.6-29.7-5.3-11.5-12.2-21.9-20.5-30.9-26.7-28.6-67.8-43.2-122.2-43.2-39.9 0-74.3-12.6-102.4-37.5-22.4-19.8-40.7-47.3-54.5-81.8-6.8-16.8-16-44.6-21.7-81.1-3.5-21.9-4-36.3-4-37v-342.5c0-1.2 0.6-15.5 4-36.9 3.1-20.2 9.5-50.6 21.7-81.1 13.8-34.5 32.1-62 54.5-81.8 28.1-24.9 62.5-37.6 102.4-37.6 54.4 0 95.6-14.5 122.3-43.2 8.4-8.9 15.3-19.3 20.6-30.8 4.3-9.3 7.6-19.3 9.7-29.8 2.7-13.3 2.8-24.2 2.8-31.7v-1.6q0-1.7 0-3.1z"/>
	<path id="Layer" fill-rule="evenodd" class="s0" d="m376 0h8.9v2208.6c0.1 2.2 0.8 16.9-3.3 36.7-2.5 12.4-6.3 24.3-11.3 35.3-6.4 13.8-14.7 26.2-24.6 36.9-31.6 33.9-79.7 51.1-143 51.1-22 0-42.5 3.7-61.1 10.8-16.9 6.6-32.6 16.2-46.6 28.5-23.8 21.1-43.3 50.5-58.1 87.4-7.3 18.3-17.4 48.4-23.7 88.2-3.6 23-4.3 38.9-4.4 40.1v380.5c0.1 1.2 0.8 17.1 4.4 40.1 3.5 22 10.4 55.1 23.7 88.2 14.8 36.9 34.3 66.3 58.1 87.3 14 12.4 29.7 22 46.6 28.5 18.6 7.2 39.1 10.9 61.1 10.9 63.3 0 111.3 17.2 142.8 51.1 10 10.7 18.2 23.1 24.5 36.9 5 11 8.8 22.8 11.3 35.2 4.1 20.2 3.3 35.1 3.1 37v1991.4h-8.8v-1992c0-0.1 1-14.9-3-35-2.4-11.6-6-22.8-10.7-33.1-5.9-12.9-13.6-24.5-22.9-34.5-29.8-32-75.6-48.2-136.3-48.2-44.2 0-82.5-14-113.6-41.6-24.8-22-45.2-52.6-60.5-90.8-7.5-18.7-17.8-49.6-24.1-90.1-3.8-24.1-4.5-40.1-4.5-41.1v-380.9-0.1c0-0.8 0.7-16.8 4.5-41 3.5-22.4 10.5-56.2 24.1-90.1 15.3-38.3 35.6-68.8 60.5-90.8 31.1-27.6 69.4-41.6 113.6-41.6 60.7 0 106.6-16.2 136.4-48.2 9.3-10 17.1-21.6 23-34.5 4.8-10.3 8.4-21.5 10.8-33.2 3.3-15.8 3.2-28.1 3.2-39.2 0-3 0-5.8 0-8.7q0 0 0 0z"/>
</svg>